<svg xmlns="http://www.w3.org/2000/svg" width="21" height="20" viewBox="0 0 21 20"><g fill="none" fill-rule="evenodd" stroke="none" stroke-width="1"><g fill="#000" transform="translate(-379.000000, -680.000000)"><g transform="translate(56.000000, 160.000000)"><path d="M336.65,538 L341.9,538 L341.9,533 L336.65,533 L336.65,538 Z M334.55,540 L344,540 L344,531 L334.55,531 L334.55,540 Z M336.65,527 L341.9,527 L341.9,522 L336.65,522 L336.65,527 Z M334.55,529 L344,529 L344,520 L334.55,520 L334.55,529 Z M325.1,538 L330.35,538 L330.35,522 L325.1,522 L325.1,538 Z M323,540 L332.45,540 L332.45,520 L323,520 L323,540 Z"/></g></g></g></svg>