<?xml version="1.0" encoding="iso-8859-1"?>
<!-- Generator: Adobe Illustrator 19.0.0, SVG Export Plug-In . SVG Version: 6.00 Build 0)  -->
<svg version="1.1" id="Layer_1" xmlns="http://www.w3.org/2000/svg" xmlns:xlink="http://www.w3.org/1999/xlink" x="0px" y="0px"
	 viewBox="0 0 265.585 265.585" style="enable-background:new 0 0 265.585 265.585;" xml:space="preserve">
<g>
	<g>
		<g>
			<path d="M264.285,148.49l-30.371-45.017c-1.415-2.097-3.779-3.353-6.307-3.353H201.35c-0.905-12.879-11.649-23.089-24.758-23.089
				h-67.414C104.653,51.22,82.094,31.537,55.01,31.537C24.677,31.536,0,56.216,0,86.549c0,23.838,15.245,44.178,36.496,51.799v39.41
				c0,13.409,10.685,24.342,23.982,24.799c-0.008,0.279-0.043,0.553-0.043,0.834c0,16.904,13.754,30.657,30.66,30.657
				s30.66-13.754,30.66-30.657c0-0.266-0.033-0.525-0.041-0.791h41.494c-0.008,0.264-0.041,0.522-0.041,0.791
				c0,16.904,13.756,30.657,30.662,30.657c16.904,0,30.657-13.754,30.657-30.657c0-0.266-0.033-0.525-0.041-0.791h33.531
				c4.202,0,7.609-3.406,7.609-7.609v-42.245C265.587,151.232,265.133,149.748,264.285,148.49z M15.217,86.554
				c0-21.943,17.852-39.795,39.793-39.795s39.793,17.852,39.793,39.795S76.95,126.349,55.01,126.349S15.217,108.497,15.217,86.554z
				 M91.095,218.836c-8.514,0-15.443-6.926-15.443-15.44c0-8.517,6.926-15.445,15.443-15.445c8.517,0,15.443,6.926,15.443,15.445
				C106.535,211.907,99.609,218.836,91.095,218.836z M167.731,187.391h-50.536v-0.004h-0.001c-5.4-8.773-15.062-14.654-26.1-14.654
				c-11.038,0-20.7,5.881-26.1,14.654H61.34c-5.308,0-9.627-4.319-9.627-9.627v-36.3c1.093,0.063,2.191,0.107,3.3,0.107
				c28.41,0,51.857-21.649,54.716-49.316h66.866c5.311,0,9.63,4.319,9.63,9.627v71.853
				C178.434,175.73,171.845,180.708,167.731,187.391z M193.83,218.836c-8.517,0-15.445-6.926-15.445-15.44
				c0-8.517,6.926-15.445,15.445-15.445c8.511,0,15.44,6.926,15.44,15.445C209.271,211.907,202.342,218.836,193.83,218.836z
				 M250.369,187.387h-30.442c-4.068-6.607-10.553-11.55-18.23-13.594v-58.456h21.867l26.805,39.734V187.387z"/>
			<path d="M55.012,97.609c4.202,0,7.609-3.406,7.609-7.609V67.175c0-4.202-3.406-7.609-7.609-7.609s-7.609,3.406-7.609,7.609
				v22.826C47.404,94.203,50.81,97.609,55.012,97.609z"/>
			<circle cx="55.01" cy="108.53" r="6.779"/>
		</g>
	</g>
</g>
<g>
</g>
<g>
</g>
<g>
</g>
<g>
</g>
<g>
</g>
<g>
</g>
<g>
</g>
<g>
</g>
<g>
</g>
<g>
</g>
<g>
</g>
<g>
</g>
<g>
</g>
<g>
</g>
<g>
</g>
</svg>
